G04 #@! TF.GenerationSoftware,KiCad,Pcbnew,7.0.1*
G04 #@! TF.CreationDate,2024-09-06T18:07:48-07:00*
G04 #@! TF.ProjectId,FACED Frame Clock,46414345-4420-4467-9261-6d6520436c6f,rev?*
G04 #@! TF.SameCoordinates,Original*
G04 #@! TF.FileFunction,Soldermask,Bot*
G04 #@! TF.FilePolarity,Negative*
%FSLAX46Y46*%
G04 Gerber Fmt 4.6, Leading zero omitted, Abs format (unit mm)*
G04 Created by KiCad (PCBNEW 7.0.1) date 2024-09-06 18:07:48*
%MOMM*%
%LPD*%
G01*
G04 APERTURE LIST*
%ADD10C,0.900000*%
%ADD11C,13.000000*%
%ADD12C,3.800000*%
%ADD13C,1.190000*%
%ADD14C,2.604000*%
%ADD15C,2.704000*%
G04 APERTURE END LIST*
D10*
X178255000Y-168210000D03*
X179682854Y-164762854D03*
X179682854Y-171657146D03*
X183130000Y-163335000D03*
D11*
X183130000Y-168210000D03*
D10*
X183130000Y-173085000D03*
X186577146Y-164762854D03*
X186577146Y-171657146D03*
X188005000Y-168210000D03*
D12*
X127110000Y-113350000D03*
D13*
X161741400Y-131968999D03*
X161731400Y-116726499D03*
X131261400Y-131968999D03*
X131251400Y-116726499D03*
D10*
X102055000Y-92010000D03*
X103482854Y-88562854D03*
X103482854Y-95457146D03*
X106930000Y-87135000D03*
D11*
X106930000Y-92010000D03*
D10*
X106930000Y-96885000D03*
X110377146Y-88562854D03*
X110377146Y-95457146D03*
X111805000Y-92010000D03*
D14*
X117560800Y-108676999D03*
D15*
X115020800Y-106136999D03*
X115020800Y-111216999D03*
X120100800Y-106136999D03*
X120100800Y-111216999D03*
D10*
X102055000Y-168210000D03*
X103482854Y-164762854D03*
X103482854Y-171657146D03*
X106930000Y-163335000D03*
D11*
X106930000Y-168210000D03*
D10*
X106930000Y-173085000D03*
X110377146Y-164762854D03*
X110377146Y-171657146D03*
X111805000Y-168210000D03*
D14*
X135696400Y-103698599D03*
D15*
X133156400Y-101158599D03*
X133156400Y-106238599D03*
X138236400Y-101158599D03*
X138236400Y-106238599D03*
D10*
X178255000Y-92010000D03*
X179682854Y-88562854D03*
X179682854Y-95457146D03*
X183130000Y-87135000D03*
D11*
X183130000Y-92010000D03*
D10*
X183130000Y-96885000D03*
X186577146Y-88562854D03*
X186577146Y-95457146D03*
X188005000Y-92010000D03*
M02*
