G04 #@! TF.GenerationSoftware,KiCad,Pcbnew,7.0.1*
G04 #@! TF.CreationDate,2024-09-06T16:35:00-07:00*
G04 #@! TF.ProjectId,FACED Frame Clock,46414345-4420-4467-9261-6d6520436c6f,rev?*
G04 #@! TF.SameCoordinates,Original*
G04 #@! TF.FileFunction,Soldermask,Top*
G04 #@! TF.FilePolarity,Negative*
%FSLAX46Y46*%
G04 Gerber Fmt 4.6, Leading zero omitted, Abs format (unit mm)*
G04 Created by KiCad (PCBNEW 7.0.1) date 2024-09-06 16:35:00*
%MOMM*%
%LPD*%
G01*
G04 APERTURE LIST*
G04 Aperture macros list*
%AMRoundRect*
0 Rectangle with rounded corners*
0 $1 Rounding radius*
0 $2 $3 $4 $5 $6 $7 $8 $9 X,Y pos of 4 corners*
0 Add a 4 corners polygon primitive as box body*
4,1,4,$2,$3,$4,$5,$6,$7,$8,$9,$2,$3,0*
0 Add four circle primitives for the rounded corners*
1,1,$1+$1,$2,$3*
1,1,$1+$1,$4,$5*
1,1,$1+$1,$6,$7*
1,1,$1+$1,$8,$9*
0 Add four rect primitives between the rounded corners*
20,1,$1+$1,$2,$3,$4,$5,0*
20,1,$1+$1,$4,$5,$6,$7,0*
20,1,$1+$1,$6,$7,$8,$9,0*
20,1,$1+$1,$8,$9,$2,$3,0*%
%AMFreePoly0*
4,1,6,1.000000,0.000000,0.500000,-0.750000,-0.500000,-0.750000,-0.500000,0.750000,0.500000,0.750000,1.000000,0.000000,1.000000,0.000000,$1*%
%AMFreePoly1*
4,1,6,0.500000,-0.750000,-0.650000,-0.750000,-0.150000,0.000000,-0.650000,0.750000,0.500000,0.750000,0.500000,-0.750000,0.500000,-0.750000,$1*%
%AMFreePoly2*
4,1,9,3.862500,-0.866500,0.737500,-0.866500,0.737500,-0.450000,-0.737500,-0.450000,-0.737500,0.450000,0.737500,0.450000,0.737500,0.866500,3.862500,0.866500,3.862500,-0.866500,3.862500,-0.866500,$1*%
G04 Aperture macros list end*
%ADD10R,1.397000X1.930400*%
%ADD11R,0.609600X2.006600*%
%ADD12R,1.930400X1.397000*%
%ADD13R,2.006600X0.609600*%
%ADD14C,3.800000*%
%ADD15C,0.900000*%
%ADD16C,13.000000*%
%ADD17RoundRect,0.102000X0.900000X0.600000X-0.900000X0.600000X-0.900000X-0.600000X0.900000X-0.600000X0*%
%ADD18RoundRect,0.250000X-0.250000X-0.475000X0.250000X-0.475000X0.250000X0.475000X-0.250000X0.475000X0*%
%ADD19RoundRect,0.225000X-0.225000X-0.250000X0.225000X-0.250000X0.225000X0.250000X-0.225000X0.250000X0*%
%ADD20FreePoly0,90.000000*%
%ADD21FreePoly1,90.000000*%
%ADD22C,1.190000*%
%ADD23RoundRect,0.102000X-0.510000X-0.952500X0.510000X-0.952500X0.510000X0.952500X-0.510000X0.952500X0*%
%ADD24RoundRect,0.102000X0.510000X0.952500X-0.510000X0.952500X-0.510000X-0.952500X0.510000X-0.952500X0*%
%ADD25RoundRect,0.225000X-0.250000X0.225000X-0.250000X-0.225000X0.250000X-0.225000X0.250000X0.225000X0*%
%ADD26RoundRect,0.225000X0.225000X0.250000X-0.225000X0.250000X-0.225000X-0.250000X0.225000X-0.250000X0*%
%ADD27RoundRect,0.100000X-0.712500X-0.100000X0.712500X-0.100000X0.712500X0.100000X-0.712500X0.100000X0*%
%ADD28R,2.489200X3.987800*%
%ADD29R,3.987800X6.999999*%
%ADD30R,0.900000X1.300000*%
%ADD31FreePoly2,90.000000*%
%ADD32RoundRect,0.225000X0.250000X-0.225000X0.250000X0.225000X-0.250000X0.225000X-0.250000X-0.225000X0*%
%ADD33FreePoly2,270.000000*%
%ADD34C,2.604000*%
%ADD35C,2.704000*%
%ADD36R,0.762000X0.254000*%
%ADD37RoundRect,0.200000X0.200000X0.275000X-0.200000X0.275000X-0.200000X-0.275000X0.200000X-0.275000X0*%
%ADD38RoundRect,0.250000X0.262500X0.450000X-0.262500X0.450000X-0.262500X-0.450000X0.262500X-0.450000X0*%
%ADD39RoundRect,0.250000X0.250000X0.475000X-0.250000X0.475000X-0.250000X-0.475000X0.250000X-0.475000X0*%
%ADD40RoundRect,0.250000X0.475000X-0.250000X0.475000X0.250000X-0.475000X0.250000X-0.475000X-0.250000X0*%
G04 APERTURE END LIST*
D10*
X138068700Y-136570000D03*
D11*
X139872100Y-136570000D03*
D10*
X141675500Y-136570000D03*
X141678100Y-141188999D03*
D11*
X139874700Y-141188999D03*
D10*
X138071300Y-141188999D03*
D12*
X159660000Y-145183400D03*
D13*
X159660000Y-143380000D03*
D12*
X159660000Y-141576600D03*
X164970000Y-136348700D03*
D13*
X164970000Y-138152100D03*
D12*
X164970000Y-139955500D03*
D14*
X127110000Y-113350000D03*
D15*
X178255000Y-168210000D03*
X179682854Y-164762854D03*
X179682854Y-171657146D03*
X183130000Y-163335000D03*
D16*
X183130000Y-168210000D03*
D15*
X183130000Y-173085000D03*
X186577146Y-164762854D03*
X186577146Y-171657146D03*
X188005000Y-168210000D03*
D17*
X154097900Y-148250199D03*
X154097900Y-145710199D03*
X154097900Y-140630199D03*
X154097900Y-138090199D03*
X143897900Y-140630199D03*
X143897900Y-148250199D03*
D18*
X139826400Y-138902999D03*
X141726400Y-138902999D03*
D19*
X122691000Y-103495399D03*
X124241000Y-103495399D03*
D20*
X173930000Y-169665000D03*
D21*
X173930000Y-168215000D03*
D20*
X173920000Y-93460000D03*
D21*
X173920000Y-92010000D03*
D22*
X161741400Y-131968999D03*
X161731400Y-116726499D03*
X131261400Y-131968999D03*
X131251400Y-116726499D03*
D23*
X163001400Y-115123999D03*
X160461400Y-118328999D03*
X157921400Y-115123999D03*
X155381400Y-118328999D03*
X152841400Y-115123999D03*
X150301400Y-118328999D03*
X147761400Y-115123999D03*
X145221400Y-118328999D03*
X142681400Y-115123999D03*
X140141400Y-118328999D03*
X137601400Y-115123999D03*
X135061400Y-118328999D03*
X132521400Y-115123999D03*
X129981400Y-118328999D03*
D24*
X129991400Y-133571499D03*
X132531400Y-130366499D03*
X135071400Y-133571499D03*
X137611400Y-130366499D03*
X140151400Y-133571499D03*
X142691400Y-130366499D03*
X145231400Y-133571499D03*
X147771400Y-130366499D03*
X150311400Y-133571499D03*
X152851400Y-130366499D03*
X155391400Y-133571499D03*
X157931400Y-130366499D03*
X160471400Y-133571499D03*
X163011400Y-130366499D03*
D25*
X157550000Y-143917100D03*
X157550000Y-145467100D03*
X156040000Y-143917100D03*
X156040000Y-145467100D03*
D19*
X129117200Y-107254599D03*
X130667200Y-107254599D03*
D26*
X124267000Y-111518999D03*
X122717000Y-111518999D03*
X125752600Y-122773999D03*
X124202600Y-122773999D03*
D27*
X123092500Y-108024999D03*
X123092500Y-108674999D03*
X123092500Y-109324999D03*
X123092500Y-109974999D03*
X127317500Y-109974999D03*
X127317500Y-109324999D03*
X127317500Y-108674999D03*
X127317500Y-108024999D03*
D28*
X163179999Y-164074900D03*
D29*
X156080000Y-172824901D03*
X169080000Y-172824901D03*
D15*
X102055000Y-92010000D03*
X103482854Y-88562854D03*
X103482854Y-95457146D03*
X106930000Y-87135000D03*
D16*
X106930000Y-92010000D03*
D15*
X106930000Y-96885000D03*
X110377146Y-88562854D03*
X110377146Y-95457146D03*
X111805000Y-92010000D03*
D30*
X122663400Y-101793599D03*
D31*
X124163400Y-101706099D03*
D30*
X125663400Y-101793599D03*
D32*
X133951400Y-110425000D03*
X133951400Y-108875000D03*
D30*
X125455000Y-116299999D03*
D33*
X123955000Y-116387499D03*
D30*
X122455000Y-116299999D03*
D20*
X116260000Y-169670000D03*
D21*
X116260000Y-168220000D03*
D26*
X130667200Y-105781399D03*
X129117200Y-105781399D03*
D34*
X117560800Y-108676999D03*
D35*
X115020800Y-106136999D03*
X115020800Y-111216999D03*
X120100800Y-106136999D03*
X120100800Y-111216999D03*
D26*
X124255000Y-106499999D03*
X122705000Y-106499999D03*
D20*
X116190000Y-93460000D03*
D21*
X116190000Y-92010000D03*
D19*
X124115000Y-96850000D03*
X125665000Y-96850000D03*
D36*
X132484400Y-110148588D03*
X132484400Y-109648462D03*
X132484400Y-109148336D03*
X132484400Y-108648210D03*
X129334800Y-108648210D03*
X129334800Y-109148336D03*
X129334800Y-109648462D03*
X129334800Y-110148588D03*
D37*
X127326600Y-104511399D03*
X125676600Y-104511399D03*
D38*
X127617300Y-106238599D03*
X125792300Y-106238599D03*
D26*
X124255000Y-104999999D03*
X122705000Y-104999999D03*
X124266400Y-113018999D03*
X122716400Y-113018999D03*
D25*
X135450000Y-108875000D03*
X135450000Y-110425000D03*
D26*
X125752600Y-121275399D03*
X124202600Y-121275399D03*
D15*
X102055000Y-168210000D03*
X103482854Y-164762854D03*
X103482854Y-171657146D03*
X106930000Y-163335000D03*
D16*
X106930000Y-168210000D03*
D15*
X106930000Y-173085000D03*
X110377146Y-164762854D03*
X110377146Y-171657146D03*
X111805000Y-168210000D03*
D34*
X135696400Y-103698599D03*
D35*
X133156400Y-101158599D03*
X133156400Y-106238599D03*
X138236400Y-101158599D03*
X138236400Y-106238599D03*
D39*
X139836600Y-143525799D03*
X141736600Y-143525799D03*
D19*
X124105000Y-95350000D03*
X125655000Y-95350000D03*
D40*
X167319400Y-137979999D03*
X167319400Y-136079999D03*
D15*
X178255000Y-92010000D03*
X179682854Y-88562854D03*
X179682854Y-95457146D03*
X183130000Y-87135000D03*
D16*
X183130000Y-92010000D03*
D15*
X183130000Y-96885000D03*
X186577146Y-88562854D03*
X186577146Y-95457146D03*
X188005000Y-92010000D03*
D19*
X122716400Y-114518999D03*
X124266400Y-114518999D03*
M02*
