M48
INCH,TZ
T1C0.0157
T2C0.0236
T3C0.0591
T4C0.0630
T5C0.0866
T6C0.2559
%
G90
G05
T1
X37795Y-34449
X37795Y-38386
X37795Y-42323
X37795Y-46260
X37795Y-50197
X37795Y-54134
X37795Y-58071
X37795Y-62008
X37795Y-65945
X38780Y-36417
X38780Y-40354
X38780Y-44291
X38780Y-48228
X38780Y-52165
X38780Y-56102
X38780Y-60039
X38780Y-63976
X38780Y-67913
X39764Y-34449
X39764Y-38386
X39764Y-42323
X39764Y-46260
X39764Y-50197
X39764Y-54134
X39764Y-58071
X39764Y-62008
X39764Y-69882
X40362Y-63933
X40748Y-32480
X40748Y-40354
X40748Y-44291
X40748Y-48228
X40748Y-52165
X40748Y-56102
X40748Y-60039
X41732Y-42323
X41732Y-46260
X41732Y-50197
X41732Y-54134
X41732Y-58071
X41732Y-62008
X41732Y-69882
X42677Y-41480
X42717Y-32480
X42717Y-40354
X42717Y-44291
X42717Y-48228
X42717Y-52165
X42717Y-56102
X42717Y-60039
X43504Y-39909
X43701Y-54134
X43701Y-58071
X43701Y-62008
X43701Y-69882
X43732Y-50193
X43744Y-46437
X43799Y-44386
X43906Y-38945
X43917Y-42346
X44201Y-41213
X44236Y-43461
X44488Y-40354
X44535Y-46181
X44650Y-44992
X44685Y-32480
X44685Y-48228
X44685Y-52165
X44685Y-56102
X44685Y-60039
X44685Y-63976
X44685Y-67913
X44839Y-38547
X45118Y-37571
X45295Y-42819
X45425Y-39500
X45563Y-40740
X45669Y-34449
X45669Y-46260
X45669Y-50197
X45669Y-58071
X45669Y-62008
X45669Y-69882
X45677Y-65563
X45736Y-54087
X45988Y-45012
X46016Y-37425
X46256Y-41760
X46256Y-43803
X46366Y-38992
X46654Y-32480
X46654Y-36417
X46654Y-48228
X46654Y-52165
X46654Y-56102
X46654Y-60039
X46654Y-63976
X46654Y-67913
X46780Y-39921
X46890Y-45839
X46917Y-37807
X47374Y-44953
X47547Y-40732
X47587Y-54598
X47638Y-34449
X47638Y-38780
X47638Y-46260
X47638Y-50197
X47638Y-58071
X47638Y-62008
X47638Y-65945
X47638Y-69882
X47843Y-42449
X47862Y-43122
X47898Y-35839
X48244Y-37535
X48268Y-39567
X48433Y-48268
X48622Y-32480
X48622Y-36417
X48622Y-52165
X48622Y-56102
X48622Y-60039
X48622Y-63976
X48622Y-67913
X49024Y-42717
X49035Y-43327
X49193Y-42307
X49354Y-43689
X49366Y-40677
X49406Y-54583
X49539Y-43165
X49606Y-34449
X49606Y-46260
X49606Y-50197
X49606Y-58071
X49606Y-62008
X49606Y-65945
X49606Y-69882
X49866Y-43606
X49874Y-41402
X50087Y-40516
X50559Y-43618
X50583Y-46390
X50591Y-32480
X50591Y-36417
X50591Y-48228
X50591Y-52165
X50591Y-56102
X50591Y-60039
X50591Y-63976
X50591Y-67913
X50618Y-39874
X50697Y-41098
X51252Y-54677
X51390Y-39587
X51406Y-40307
X51421Y-41000
X51575Y-34449
X51575Y-38386
X51575Y-50197
X51575Y-58071
X51575Y-62008
X51575Y-65945
X51575Y-69882
X51650Y-45354
X51780Y-43244
X52020Y-42484
X52035Y-44012
X52122Y-37441
X52126Y-46516
X52394Y-40835
X52524Y-38669
X52559Y-32480
X52559Y-36417
X52559Y-48228
X52559Y-52165
X52559Y-56102
X52559Y-60039
X52559Y-63976
X52559Y-67913
X52744Y-45787
X53102Y-42417
X53248Y-54634
X53315Y-44382
X53417Y-39713
X53543Y-34449
X53543Y-38386
X53543Y-50197
X53543Y-58071
X53543Y-62008
X53543Y-65945
X53543Y-69882
X53646Y-42031
X53693Y-45378
X53736Y-46807
X53874Y-43339
X54331Y-54681
X54476Y-40854
X54488Y-56213
X54504Y-53004
X54508Y-38764
X54528Y-32480
X54528Y-36417
X54528Y-44291
X54528Y-48228
X54528Y-52165
X54528Y-60039
X54528Y-63976
X54528Y-67913
X54693Y-46409
X55035Y-57197
X55512Y-34449
X55512Y-38386
X55512Y-42323
X55512Y-58071
X55512Y-62008
X55512Y-65945
X55512Y-69882
X55575Y-41157
X55594Y-39547
X55657Y-50197
X55661Y-46295
X55764Y-52996
X55835Y-43335
X56496Y-32480
X56496Y-36417
X56496Y-40354
X56496Y-44291
X56496Y-48228
X56496Y-52165
X56496Y-60039
X56496Y-63976
X56496Y-67913
X56512Y-41941
X56520Y-56240
X56591Y-39063
X57480Y-34449
X57480Y-38386
X57480Y-42323
X57480Y-50496
X57480Y-53701
X57480Y-58071
X57480Y-62008
X57480Y-65945
X57480Y-69882
X57567Y-55043
X57685Y-46276
X58465Y-32480
X58465Y-36417
X58465Y-40354
X58465Y-48228
X58465Y-52165
X58465Y-56102
X58465Y-60039
X58465Y-63976
X58465Y-67913
X58811Y-44193
X59449Y-34449
X59449Y-38386
X59449Y-42323
X59449Y-50197
X59449Y-58071
X59449Y-62008
X59449Y-65945
X59449Y-69882
X59583Y-53705
X59685Y-55035
X59724Y-46776
X60268Y-67933
X60433Y-32480
X60433Y-36417
X60433Y-40354
X60433Y-44291
X60433Y-48228
X60433Y-52165
X60433Y-56102
X60433Y-60039
X60433Y-63976
X61417Y-34449
X61417Y-38386
X61417Y-42323
X61417Y-50197
X61417Y-54134
X61417Y-62008
X61417Y-65945
X61417Y-69882
X61598Y-58181
X61697Y-46409
X61705Y-59205
X61976Y-54972
X62122Y-56138
X62402Y-32480
X62402Y-36417
X62402Y-40354
X62402Y-44291
X62402Y-52165
X62402Y-60039
X62402Y-63976
X62433Y-53492
X62508Y-48189
X62563Y-67925
X63024Y-58866
X63201Y-50276
X63386Y-34449
X63386Y-38386
X63386Y-42323
X63386Y-62008
X63386Y-65945
X63386Y-69882
X63543Y-57567
X63587Y-55626
X63720Y-46512
X63724Y-52614
X63913Y-60102
X64213Y-58917
X64299Y-56539
X64319Y-61976
X64343Y-54598
X64370Y-32480
X64370Y-36417
X64370Y-40354
X64370Y-44291
X64370Y-48228
X64370Y-67913
X65154Y-63972
X65354Y-34449
X65354Y-38386
X65354Y-42323
X65354Y-46260
X65354Y-50197
X65354Y-65945
X65354Y-69882
X65465Y-67154
X65567Y-54012
X65689Y-57563
X65740Y-62130
X65843Y-60067
X66339Y-32480
X66339Y-36417
X66339Y-40354
X66339Y-44291
X66339Y-48228
X66339Y-52165
X66339Y-56102
X66339Y-63976
X67323Y-34449
X67323Y-38386
X67323Y-42323
X67323Y-46260
X67323Y-50197
X67323Y-54134
X67323Y-58071
X67323Y-62008
X67323Y-65945
X67323Y-69882
X68307Y-32480
X68307Y-40354
X68307Y-44291
X68307Y-48228
X68307Y-52165
X68307Y-56102
X68307Y-63976
X68307Y-67913
X68441Y-60047
X69291Y-34449
X69291Y-38386
X69291Y-42323
X69291Y-46260
X69291Y-50197
X69291Y-54134
X69291Y-58071
X69291Y-62008
X69291Y-69882
X70276Y-32480
X70276Y-40354
X70276Y-44291
X70276Y-48228
X70276Y-52165
X70276Y-56102
X70276Y-60039
X70276Y-63976
X71260Y-42323
X71260Y-46260
X71260Y-50197
X71260Y-54134
X71260Y-58071
X71260Y-62008
X71260Y-69882
X72244Y-32480
X72244Y-40354
X72244Y-44291
X72244Y-48228
X72244Y-52165
X72244Y-56102
X72244Y-60039
X73228Y-42323
X73228Y-46260
X73228Y-50197
X73228Y-54134
X73228Y-58071
X73228Y-62008
X73228Y-69882
X74213Y-32480
X74213Y-40354
X74213Y-44291
X74213Y-48228
X74213Y-52165
X74213Y-56102
X74213Y-60039
X74213Y-63976
X74343Y-68008
X75197Y-34449
X75197Y-38386
X75197Y-42323
X75197Y-46260
X75197Y-50197
X75197Y-54134
X75197Y-58071
X75197Y-62008
X75197Y-65945
X75854Y-64358
X76181Y-36417
X76181Y-40354
X76181Y-44291
X76181Y-48228
X76181Y-52165
X76181Y-56102
X76181Y-60039
X76181Y-67913
X76374Y-62720
T2
X40179Y-36224
X40179Y-66224
X40741Y-34867
X40741Y-37582
X40741Y-64867
X40741Y-67582
X42098Y-34305
X42098Y-38144
X42098Y-64305
X42098Y-68144
X43456Y-34867
X43456Y-37582
X43456Y-64867
X43456Y-67582
X44018Y-36224
X44018Y-66224
X70179Y-36224
X70179Y-66224
X70741Y-34867
X70741Y-37582
X70741Y-64867
X70741Y-67582
X72098Y-34305
X72098Y-38144
X72098Y-64305
X72098Y-68144
X73456Y-34867
X73456Y-37582
X73456Y-64867
X73456Y-67582
X74018Y-36224
X74018Y-66224
T3
X46284Y-42786
X53424Y-40826
T4
X45284Y-41786
X45284Y-43786
X47284Y-41786
X47284Y-43786
X52424Y-39826
X52424Y-41826
X54424Y-39826
X54424Y-41826
T5
X50043Y-44626
T6
X42098Y-36224
X42098Y-66224
X72098Y-36224
X72098Y-66224
T0
M30
